PathFileType  4	(X/Y/Z) C:\Users\antoi\Documents\MyRepositories\mobilecap\ResultsAnalysis
DataRate	CameraRate	NumFrames	NumMarkers	Units	OrigDataRate	OrigDataStartFrame	OrigNumFrames
100.0	100.0	6	55	mm	100.0	314	502
Frame#	Time	r_knee			r_shank_antsup			r_ankle			r_calc			r_5meta			r_toe			L_knee			L_shank_antsup			L_ankle			L_calc			L_5meta			L_toe			r_mknee			r_mankle			L_mknee			L_mankle			r_sh2			r_sh3			r_sh4			L_sh2			L_sh3			r_thigh1			r_thigh2			r_thigh3			r_thigh4			r_thigh5			L_thigh1			L_thigh2			L_thigh3			L_thigh4			r.ASIS			r.PSIS			L.ASIS			L.PSIS			C7			R_Shoulder			L_Shoulder			R_Sternum			L_Sternum			R_humerus			R_elbow_med			R_elbow_lat			R_forearm			R_wrist_radius			R_wrist_ulna			L_humerus			L_elbow_med			L_elbow_lat			L_forearm			L_wrist_radius			L_wrist_ulna			R_HJC			L_HJC			R_HJC_reg			L_HJC_reg			
		X1	Y1	Z1	X2	Y2	Z2	X3	Y3	Z3	X4	Y4	Z4	X5	Y5	Z5	X6	Y6	Z6	X7	Y7	Z7	X8	Y8	Z8	X9	Y9	Z9	X10	Y10	Z10	X11	Y11	Z11	X12	Y12	Z12	X13	Y13	Z13	X14	Y14	Z14	X15	Y15	Z15	X16	Y16	Z16	X17	Y17	Z17	X18	Y18	Z18	X19	Y19	Z19	X20	Y20	Z20	X21	Y21	Z21	X22	Y22	Z22	X23	Y23	Z23	X24	Y24	Z24	X25	Y25	Z25	X26	Y26	Z26	X27	Y27	Z27	X28	Y28	Z28	X29	Y29	Z29	X30	Y30	Z30	X31	Y31	Z31	X32	Y32	Z32	X33	Y33	Z33	X34	Y34	Z34	X35	Y35	Z35	X36	Y36	Z36	X37	Y37	Z37	X38	Y38	Z38	X39	Y39	Z39	X40	Y40	Z40	X41	Y41	Z41	X42	Y42	Z42	X43	Y43	Z43	X44	Y44	Z44	X45	Y45	Z45	X46	Y46	Z46	X47	Y47	Z47	X48	Y48	Z48	X49	Y49	Z49	X50	Y50	Z50	X51	Y51	Z51	X52	Y52	Z52	X53	Y53	Z53	X54	Y54	Z54	X55	Y55	Z55	

314	3.13000000	-271.66920	541.91240	-446.85833	-247.35167	465.78691	-433.28741	-289.26205	101.60012	-442.75067	-349.68246	51.98640	-483.49227	-144.89160	37.96354	-410.28632	-113.46578	61.87321	-472.32262	-265.90799	542.00890	-769.13015	-239.55420	425.02168	-778.80874	-297.34432	99.29949	-758.48321	-364.48040	52.50383	-717.43836	-144.84773	33.75852	-792.15653	-119.77245	59.48444	-726.94587	-270.99675	535.66146	-570.54658	-263.59148	115.01672	-533.94941	-270.19347	543.25959	-641.61686	-270.53336	114.84262	-666.14492	-245.10719	353.26975	-421.60981	-320.94043	465.98693	-410.92205	-325.85674	350.52044	-407.99688	-326.63848	437.37480	-797.72441	-328.64046	316.28272	-796.36431	-191.50124	861.26383	-430.82030	-184.77919	748.84468	-441.11725	-236.60621	719.13181	-411.31789	-303.88323	848.56381	-423.86449	-290.11706	731.91600	-422.56015	-179.61777	865.09027	-786.53320	-180.10449	725.25093	-782.42987	-299.10385	860.07394	-802.56269	-288.48635	720.57280	-795.57745	-164.51561	1049.48806	-476.94851	-350.19520	1107.45780	-564.84624	-154.98977	1046.73379	-741.18904	-346.77645	1108.90531	-669.15478	-362.85656	1604.81884	-625.63806	-298.93136	1569.58865	-446.66541	-298.10879	1583.03306	-784.32901	-208.51694	1554.38960	-590.47859	-205.78003	1551.26258	-643.90403	-304.56770	1296.06870	-362.71098	-337.28359	1207.11492	-437.90827	-323.20203	1209.75322	-356.27556	-251.74273	1067.63122	-337.00120	-203.35713	962.48115	-344.01362	-246.40356	958.31615	-330.90323	-278.12729	1321.51241	-869.93588	-325.17302	1232.28180	-813.96526	-295.24503	1234.25072	-875.03677	-230.76048	1075.31720	-886.07131	-190.93836	984.12437	-872.26517	-225.42358	974.56875	-889.18951	-257.09394	979.74192	-489.74855	-246.20163	978.17471	-719.85357	-243.85019	977.01359	-518.19115	-238.13374	979.43394	-692.60218	
315	3.14000000	-271.77768	541.91330	-446.89172	-247.33051	465.82514	-433.26285	-289.25386	101.60615	-442.85846	-349.67088	52.04572	-483.45531	-144.91220	37.99194	-410.32506	-113.46979	61.97549	-472.25057	-265.89978	542.18068	-769.21134	-239.54184	425.14317	-778.76710	-297.36616	99.45426	-758.39761	-364.49261	52.60004	-717.34917	-144.84072	33.90666	-792.10900	-119.80036	59.57218	-726.94082	-270.98736	535.65591	-570.54465	-263.57734	115.14947	-533.91323	-270.20841	543.25496	-641.61298	-270.52045	114.87185	-666.08670	-245.12687	353.30195	-421.62084	-320.97107	466.01283	-410.93181	-325.72927	350.51115	-407.83501	-326.66605	437.49051	-797.67559	-328.67924	316.39539	-796.29198	-191.55153	861.20501	-430.87541	-184.76679	748.89316	-441.14153	-236.64130	719.16330	-411.31926	-303.92541	848.56495	-423.87082	-290.13971	731.92981	-422.55224	-179.75918	865.01377	-786.59170	-180.12177	725.38111	-782.38247	-299.14154	860.25701	-802.56782	-288.50713	720.69502	-795.53192	-164.55631	1049.53824	-476.91393	-350.27275	1107.53080	-564.89379	-155.00101	1046.85160	-741.13999	-346.89583	1108.94728	-669.23170	-362.94129	1604.90572	-625.58114	-299.00487	1569.62500	-446.68751	-298.13876	1583.15138	-784.30652	-208.55763	1554.49108	-590.44666	-205.84904	1551.40379	-643.93993	-304.61354	1296.08542	-362.72143	-337.29527	1207.10554	-437.90271	-323.26023	1209.78309	-356.27916	-251.74294	1067.64811	-336.97269	-203.34081	962.55635	-344.00837	-246.42084	958.31262	-330.90545	-278.12556	1321.62979	-869.90342	-325.18421	1232.35397	-813.90160	-295.25645	1234.40014	-875.07043	-230.78151	1075.43404	-886.04534	-190.96146	984.26276	-872.24456	-225.45052	974.73977	-889.28425	-257.16722	979.80042	-489.76879	-246.20826	978.25736	-719.87081	-243.86805	977.15160	-518.09876	-238.22331	979.51935	-692.50352	
316	3.15000000	-271.78358	541.86738	-446.91585	-247.31948	465.86630	-433.24900	-289.27707	101.64472	-442.92698	-349.66026	52.09376	-483.44194	-144.91745	38.00501	-410.40074	-113.47551	62.09471	-472.22853	-265.92491	542.27756	-769.11011	-239.53072	425.22400	-778.72892	-297.34075	99.59058	-758.36615	-364.49019	52.66797	-717.29317	-144.81029	34.01658	-792.13256	-119.77528	59.72012	-726.99391	-270.93139	535.57999	-570.50631	-263.56163	115.24996	-533.88518	-270.20424	543.23721	-641.61353	-270.47120	114.89603	-666.08077	-245.13615	353.36761	-421.66230	-320.97482	465.93956	-410.92537	-325.49377	350.44080	-407.59938	-326.67268	437.56749	-797.63191	-328.67520	316.49446	-796.28944	-191.52717	861.17360	-430.91658	-184.80480	748.96275	-441.22306	-236.65728	719.21027	-411.37151	-303.97024	848.68973	-423.86938	-290.12541	731.99873	-422.51724	-179.80325	864.98308	-786.64089	-180.13227	725.46903	-782.34183	-299.18729	860.30464	-802.41745	-288.51833	720.77752	-795.50698	-164.60389	1049.59967	-476.93053	-350.32048	1107.64161	-564.91271	-155.00182	1046.94058	-741.10511	-347.00604	1109.05164	-669.32487	-362.98409	1605.05205	-625.60406	-299.05059	1569.67538	-446.71757	-298.14908	1583.22946	-784.28179	-208.61556	1554.59301	-590.44547	-205.83013	1551.50193	-643.83548	-304.65125	1296.13404	-362.73092	-337.29167	1206.88838	-437.97559	-323.37987	1209.84613	-356.23157	-251.72887	1067.68104	-336.92441	-203.36965	962.63435	-344.02526	-246.41487	958.37612	-330.86026	-278.11531	1321.71716	-869.89002	-325.20804	1232.41569	-813.87873	-295.25465	1234.49355	-875.07457	-230.79440	1075.51229	-886.03702	-190.97447	984.34496	-872.22531	-225.46757	974.85500	-889.34473	-257.25009	979.88694	-489.79691	-246.24475	978.35264	-719.89677	-243.86930	977.27972	-518.04929	-238.33394	979.63456	-692.42472	
317	3.16000000	-271.76339	541.77999	-446.96977	-247.35000	465.89730	-433.26342	-289.32609	101.69152	-442.92088	-349.65552	52.11320	-483.43934	-144.88690	38.00204	-410.47189	-113.47456	62.19692	-472.24653	-265.93983	542.28774	-768.98371	-239.52271	425.26435	-778.70869	-297.31665	99.65859	-758.36458	-364.43996	52.77001	-717.33383	-144.77949	34.04883	-792.13539	-119.74173	59.81813	-726.99765	-270.83250	535.44871	-570.42315	-263.54636	115.30222	-533.86835	-270.18968	543.21070	-641.62034	-270.43507	114.88674	-666.11804	-245.07239	353.38004	-421.70338	-320.92016	466.09129	-410.92077	-325.43178	350.36899	-407.57159	-326.66696	437.60507	-797.60769	-328.63525	316.54127	-796.32182	-191.48267	861.15278	-430.91749	-184.88321	749.00048	-441.29140	-236.68009	719.25809	-411.41510	-303.99973	848.87030	-423.85176	-290.13279	732.06733	-422.53349	-179.72823	864.99283	-786.57766	-180.14059	725.50686	-782.32045	-299.24809	860.24313	-802.18554	-288.53558	720.81897	-795.50173	-164.68311	1049.62366	-477.01516	-350.36370	1107.72363	-564.88386	-155.01776	1046.99802	-741.07985	-347.07021	1109.15627	-669.35357	-363.00079	1605.21381	-625.67469	-299.07016	1569.72007	-446.72687	-298.15256	1583.27635	-784.28170	-208.67815	1554.69185	-590.44667	-205.80305	1551.55045	-643.74314	-304.66996	1296.22412	-362.72840	-337.25228	1206.65903	-438.07301	-323.47505	1209.91293	-356.15887	-251.70245	1067.74756	-336.91336	-203.41240	962.68342	-344.04372	-246.41615	958.50156	-330.84021	-278.10629	1321.76925	-869.89056	-325.26634	1232.46939	-813.94301	-295.25361	1234.54798	-875.07763	-230.79290	1075.56304	-886.06338	-190.98333	984.37891	-872.20091	-225.47662	974.90637	-889.34613	-257.33050	979.93167	-489.83025	-246.31312	978.43774	-719.92980	-243.91083	977.35705	-518.11073	-238.41581	979.74738	-692.41579	
318	3.17000000	-271.79475	541.75510	-446.97939	-247.39241	465.95172	-433.30431	-289.36206	101.76477	-442.93111	-349.65563	52.10534	-483.44363	-144.88416	38.01595	-410.52983	-113.47536	62.23313	-472.27899	-265.92944	542.22747	-768.91633	-239.51756	425.26200	-778.70520	-297.33892	99.62671	-758.35654	-364.36806	52.91400	-717.49100	-144.76542	34.00982	-792.10209	-119.71888	59.83529	-726.96357	-270.76598	535.37523	-570.35374	-263.54291	115.30088	-533.86429	-270.18590	543.19667	-641.62416	-270.43269	114.88084	-666.11577	-244.98321	353.38316	-421.71773	-320.85655	466.35104	-410.92385	-325.47676	350.34756	-407.62697	-326.66073	437.60290	-797.60800	-328.60738	316.48187	-796.31657	-191.51883	861.04971	-430.90376	-184.92339	749.03205	-441.30736	-236.73808	719.30016	-411.42531	-304.04280	848.96560	-423.89047	-290.17820	732.11163	-422.57830	-179.63921	864.99594	-786.49523	-180.15612	725.50542	-782.31494	-299.29798	860.17891	-802.07092	-288.55283	720.80826	-795.51151	-164.76044	1049.62655	-477.11010	-350.42785	1107.76526	-564.88074	-155.06555	1047.02161	-741.07097	-347.11315	1109.20918	-669.36789	-363.01329	1605.31944	-625.72336	-299.10455	1569.76966	-446.72530	-298.14661	1583.30583	-784.30750	-208.72746	1554.75792	-590.43530	-205.85292	1551.56583	-643.78839	-304.65549	1296.32520	-362.69885	-337.21971	1206.72445	-438.08188	-323.50559	1209.97640	-356.13914	-251.69341	1067.82858	-336.95584	-203.43500	962.69998	-344.04217	-246.42440	958.60347	-330.88004	-278.11091	1321.77874	-869.89777	-325.31209	1232.49910	-814.00920	-295.26105	1234.56683	-875.09189	-230.78652	1075.58688	-886.11749	-191.01753	984.41971	-872.22874	-225.47823	974.93520	-889.39104	-257.40544	979.94657	-489.86723	-246.38862	978.48037	-719.96700	-243.99198	977.40301	-518.21130	-238.46464	979.81083	-692.44714	
319	3.18000000	-271.84779	541.81508	-446.92221	-247.38750	466.04922	-433.34136	-289.36828	101.85920	-442.99468	-349.66608	52.08402	-483.46739	-144.91784	38.08975	-410.56881	-113.48390	62.21138	-472.35103	-265.90045	542.10372	-768.87805	-239.52173	425.20670	-778.69551	-297.36606	99.53515	-758.36914	-364.33731	52.99159	-717.66944	-144.76377	33.93435	-792.09534	-119.68171	59.86789	-727.02572	-270.76178	535.37080	-570.35069	-263.55592	115.23925	-533.87722	-270.19851	543.20412	-641.61859	-270.44452	114.90025	-666.06954	-245.00534	353.45301	-421.71920	-320.86647	466.42407	-410.93258	-325.52268	350.38795	-407.62952	-326.65282	437.55424	-797.62988	-328.60408	316.34817	-796.27278	-191.65879	860.90978	-430.87235	-184.94091	749.09259	-441.34044	-236.81948	719.37235	-411.43098	-304.11555	848.98280	-423.98472	-290.24356	732.16140	-422.55520	-179.63741	864.99797	-786.49217	-180.17697	725.46123	-782.32273	-299.31954	860.12041	-802.10378	-288.56074	720.73840	-795.53216	-164.79254	1049.67190	-477.14094	-350.53274	1107.78508	-564.96314	-155.13791	1047.00707	-741.10333	-347.18573	1109.23931	-669.40556	-363.03303	1605.33447	-625.76030	-299.17475	1569.84071	-446.73575	-298.14061	1583.29535	-784.34359	-208.75801	1554.77692	-590.42290	-205.93406	1551.57003	-643.85932	-304.65505	1296.41590	-362.70175	-337.20500	1206.88315	-438.07357	-323.49457	1210.05931	-356.18906	-251.71849	1067.89806	-337.01844	-203.44157	962.72768	-344.05044	-246.43611	958.64197	-330.93924	-278.12461	1321.74496	-869.91478	-325.31836	1232.49005	-814.03993	-295.26704	1234.54161	-875.11163	-230.78914	1075.56445	-886.16382	-191.05661	984.41795	-872.31015	-225.47564	974.95359	-889.54006	-257.47451	979.99225	-489.89265	-246.46023	978.47847	-719.99224	-244.06044	977.38569	-518.27715	-238.47681	979.81174	-692.51137	
